<svg width="39" height="38" viewBox="0 0 39 38" fill="none" xmlns="http://www.w3.org/2000/svg">
<path d="M15.5449 21.7317L12.8333 24.4172C11.8341 25.4067 11.8341 27.0112 12.8333 28.0007M15.5449 21.7317L16.4516 20.8337C17.4507 19.8442 19.0707 19.8442 20.0699 20.8337C21.069 21.8232 21.069 23.4277 20.0699 24.4172C20.0699 24.4172 19.7112 24.7723 19.4814 25M15.5449 21.7317C13.8693 19.6202 12.8686 16.949 12.8686 14.0441C12.8686 7.20822 18.4102 1.66667 25.246 1.66667C32.0819 1.66667 37.6234 7.20822 37.6234 14.0441C37.6234 20.8798 32.0819 26.4215 25.246 26.4215C23.304 26.4215 21.117 25.797 19.4814 25M12.8333 28.0007C13.8324 28.9902 15.4524 28.9902 16.4516 28.0007C16.4516 28.0007 18.2982 26.1718 19.4814 25M12.8333 28.0007L9.64744 29.1682C8.32037 29.6492 7.42854 30.8888 7.40289 32.2882C7.37559 33.7767 6.37035 35.073 4.92537 35.4833L1.66669 36.4085M30.6399 12.7237C30.6399 15.3408 28.5184 17.4623 25.9012 17.4623C23.2842 17.4623 21.1625 15.3408 21.1625 12.7237C21.1625 10.1066 23.2842 7.98504 25.9012 7.98504C28.5184 7.98504 30.6399 10.1066 30.6399 12.7237Z" stroke="white" stroke-width="1.5" stroke-linecap="round"/>
</svg>
